REM MD5 5fc2a7c0dfd47e120dacc48fc5ed40bf
FILE "Euro Demo 06-98 (Germany).bin" BINARY
  TRACK 01 MODE2/2352
    INDEX 01 00:00:00
  TRACK 02 AUDIO
    INDEX 00 27:17:63
    INDEX 01 27:19:63
  TRACK 03 AUDIO
    INDEX 00 30:19:38
    INDEX 01 30:21:38
REM LEADOUT 33:22:69
